<svg xmlns="http://www.w3.org/2000/svg" xmlns:xlink="http://www.w3.org/1999/xlink" width="500" zoomAndPan="magnify" viewBox="0 0 375 374.999991" height="500" preserveAspectRatio="xMidYMid meet" version="1.2"><defs><clipPath id="51d64363b8"><path d="M 72.535156 72.535156 L 302.464844 72.535156 L 302.464844 302.464844 L 72.535156 302.464844 Z M 72.535156 72.535156 "/></clipPath><clipPath id="29f6c1afcc"><path d="M 72.535156 72.535156 L 302.457031 72.535156 L 302.457031 302.457031 L 72.535156 302.457031 Z M 72.535156 72.535156 "/></clipPath><clipPath id="9e17a22a60"><path d="M 24 24 L 351 24 L 351 351 L 24 351 Z M 24 24 "/></clipPath><clipPath id="d4c12642ac"><path d="M 187.496094 24.917969 L 350.082031 187.5 L 187.496094 350.085938 L 24.910156 187.5 Z M 187.496094 24.917969 "/></clipPath></defs><g id="b409976182"><g clip-rule="nonzero" clip-path="url(#51d64363b8)"><path style=" stroke:none;fill-rule:nonzero;fill:#58a6ff;fill-opacity:1;" d="M 72.535156 72.535156 L 302.464844 72.535156 L 302.464844 302.464844 L 72.535156 302.464844 Z M 72.535156 72.535156 "/></g><g clip-rule="nonzero" clip-path="url(#29f6c1afcc)"><path style="fill:none;stroke-width:30;stroke-linecap:butt;stroke-linejoin:miter;stroke:#0d1117;stroke-opacity:1;stroke-miterlimit:4;" d="M 0.000319618 0.000325618 L 306.56284 0.000325618 L 306.56284 306.562846 L 0.000319618 306.562846 Z M 0.000319618 0.000325618 " transform="matrix(0.75,0,0,0.75,72.534917,72.534912)"/></g><g clip-rule="nonzero" clip-path="url(#9e17a22a60)"><g clip-rule="nonzero" clip-path="url(#d4c12642ac)"><path style=" stroke:none;fill-rule:nonzero;fill:#58a6ff;fill-opacity:1;" d="M 187.496094 24.917969 L 350.082031 187.5 L 187.496094 350.085938 L 24.910156 187.5 Z M 187.496094 24.917969 "/></g></g><g style="fill:#0d1117;fill-opacity:1;"><g transform="translate(98.759765, 207.045147)"><path style="stroke:none" d="M 1.1875 16.0625 L 1.1875 -13.84375 L 14.9375 -13.84375 L 14.9375 -29.96875 L 44.8125 -29.96875 L 44.8125 -13.84375 L 47.1875 -13.84375 L 47.1875 -0.0625 L 14.9375 -0.0625 L 14.9375 16.0625 Z M 31.0625 -13.84375 L 31.0625 -16.1875 L 28.6875 -16.1875 L 28.6875 -13.84375 Z M 31.0625 -13.84375 "/></g></g><g style="fill:#0d1117;fill-opacity:1;"><g transform="translate(143.572857, 207.045147)"><path style="stroke:none" d="M 2.34375 -13.84375 L 2.34375 -29.96875 L 16.125 -29.96875 L 16.125 -13.84375 L 18.46875 -13.84375 L 18.46875 -0.0625 L 0 -0.0625 L 0 -13.84375 Z M 2.34375 16.0625 L 2.34375 2.28125 L 16.125 2.28125 L 16.125 16.0625 Z M 2.34375 32.1875 L 2.34375 18.40625 L 16.125 18.40625 L 16.125 32.1875 Z M 2.34375 32.1875 "/></g></g><g style="fill:#0d1117;fill-opacity:1;"><g transform="translate(159.69464, 207.045147)"><path style="stroke:none" d="M 4.671875 -16.1875 L 2.703125 -16.1875 L 2.703125 -29.96875 L 50.796875 -29.96875 L 50.796875 -0.0625 L 0 -0.0625 L 0 -13.84375 L 4.671875 -13.84375 Z M 20.796875 -16.1875 L 18.46875 -16.1875 L 18.46875 -13.84375 L 20.796875 -13.84375 Z M 37.015625 -16.1875 L 34.578125 -16.1875 L 34.578125 -13.84375 L 37.015625 -13.84375 Z M 37.015625 -16.1875 "/></g></g><g style="fill:#0d1117;fill-opacity:1;"><g transform="translate(211.672968, 207.045147)"><path style="stroke:none" d="M 14.96875 -0.0625 L 1.1875 -0.0625 L 1.1875 -62.21875 L 14.96875 -62.21875 Z M 14.96875 -0.0625 "/></g></g><g style="fill:#0d1117;fill-opacity:1;"><g transform="translate(227.825113, 207.045147)"><path style="stroke:none" d="M 1.1875 16.0625 L 1.1875 -29.96875 L 14.9375 -29.96875 L 14.9375 -13.84375 L 17.3125 -13.84375 L 17.3125 -0.0625 L 14.9375 -0.0625 L 14.9375 16.0625 Z M 1.1875 16.0625 "/></g></g><g style="fill:#0d1117;fill-opacity:1;"><g transform="translate(242.76281, 207.045147)"><path style="stroke:none" d="M 2.34375 -13.84375 L 2.34375 -29.96875 L 16.125 -29.96875 L 16.125 -0.0625 L 0 -0.0625 L 0 -13.84375 Z M 2.34375 16.0625 L 2.34375 2.28125 L 16.125 2.28125 L 16.125 16.0625 Z M 2.34375 16.0625 "/></g></g><g style="fill:#0d1117;fill-opacity:1;"><g transform="translate(260.068679, 207.045147)"><path style="stroke:none" d="M 14.96875 -0.0625 L 1.1875 -0.0625 L 1.1875 -62.21875 L 14.96875 -62.21875 Z M 14.9375 8.015625 L 8.078125 8.015625 L 8.078125 10.359375 L 14.9375 10.359375 L 14.9375 16.0625 L 1.1875 16.0625 L 1.1875 2.28125 L 14.9375 2.28125 Z M 14.9375 8.015625 "/></g></g><g style="fill:#000000;fill-opacity:1;"><g transform="translate(98.752492, 255.840892)"><path style="stroke:none" d="M 5.8125 -5.59375 L 5.8125 -3.015625 L 2.796875 -3.015625 L 2.796875 -0.015625 L 0.21875 -0.015625 L 0.21875 -8.609375 L 5.8125 -8.609375 L 5.8125 -6.03125 L 2.796875 -6.03125 L 2.796875 -5.59375 Z M 5.8125 -5.59375 "/></g></g><g style="fill:#000000;fill-opacity:1;"><g transform="translate(104.777688, 255.840892)"><path style="stroke:none" d="M 0.21875 -0.015625 L 0.21875 -8.609375 L 5.8125 -8.609375 L 5.8125 -5.609375 L 4.515625 -4.3125 L 5.8125 -3.015625 L 5.8125 -0.015625 L 3.234375 -0.015625 L 3.234375 -3.015625 L 2.796875 -3.015625 L 2.796875 -0.015625 Z M 2.796875 -5.59375 L 3.234375 -5.59375 L 3.234375 -6.03125 L 2.796875 -6.03125 Z M 2.796875 -5.59375 "/></g></g><g style="fill:#000000;fill-opacity:1;"><g transform="translate(110.802883, 255.840892)"><path style="stroke:none" d="M 5.8125 -8.609375 L 5.8125 -0.015625 L 0.21875 -0.015625 L 0.21875 -8.609375 Z M 3.234375 -6.03125 L 2.796875 -6.03125 L 2.796875 -2.59375 L 3.234375 -2.59375 Z M 3.234375 -6.03125 "/></g></g><g style="fill:#000000;fill-opacity:1;"><g transform="translate(116.828079, 255.840892)"><path style="stroke:none" d="M 0.21875 -0.015625 L 0.21875 -8.609375 L 5.8125 -8.609375 L 5.8125 -0.015625 L 3.234375 -0.015625 L 3.234375 -6.03125 L 2.796875 -6.03125 L 2.796875 -0.015625 Z M 0.21875 -0.015625 "/></g></g><g style="fill:#000000;fill-opacity:1;"><g transform="translate(122.853275, 255.840892)"><path style="stroke:none" d="M 4.296875 -6.03125 L 4.296875 -0.015625 L 1.71875 -0.015625 L 1.71875 -6.03125 L 0.21875 -6.03125 L 0.21875 -8.609375 L 5.8125 -8.609375 L 5.8125 -6.03125 Z M 4.296875 -6.03125 "/></g></g><g style="fill:#000000;fill-opacity:1;"><g transform="translate(128.878472, 255.840892)"><path style="stroke:none" d="M 5.375 -3.015625 L 0.21875 -3.015625 L 0.21875 -5.59375 L 5.375 -5.59375 Z M 5.375 -3.015625 "/></g></g><g style="fill:#000000;fill-opacity:1;"><g transform="translate(134.466812, 255.840892)"><path style="stroke:none" d="M 5.8125 -5.59375 L 5.8125 -3.015625 L 2.796875 -3.015625 L 2.796875 -2.59375 L 5.8125 -2.59375 L 5.8125 -0.015625 L 0.21875 -0.015625 L 0.21875 -8.609375 L 5.8125 -8.609375 L 5.8125 -6.03125 L 2.796875 -6.03125 L 2.796875 -5.59375 Z M 5.8125 -5.59375 "/></g></g><g style="fill:#000000;fill-opacity:1;"><g transform="translate(140.497682, 255.840892)"><path style="stroke:none" d="M 0.21875 -0.015625 L 0.21875 -8.609375 L 5.8125 -8.609375 L 5.8125 -0.015625 L 3.234375 -0.015625 L 3.234375 -6.03125 L 2.796875 -6.03125 L 2.796875 -0.015625 Z M 0.21875 -0.015625 "/></g></g><g style="fill:#000000;fill-opacity:1;"><g transform="translate(146.522879, 255.840892)"><path style="stroke:none" d="M 3.234375 -8.609375 L 5.8125 -6.03125 L 5.8125 -0.015625 L 0.21875 -0.015625 L 0.21875 -8.609375 Z M 3.234375 -2.59375 L 3.234375 -6.03125 L 2.796875 -6.03125 L 2.796875 -2.59375 Z M 3.234375 -2.59375 "/></g></g><g style="fill:#000000;fill-opacity:1;"><g transform="translate(152.554948, 255.840892)"><path style="stroke:none" d=""/></g></g><g style="fill:#000000;fill-opacity:1;"><g transform="translate(152.991803, 255.840892)"><path style="stroke:none" d=""/></g></g><g style="fill:#000000;fill-opacity:1;"><g transform="translate(153.428659, 255.840892)"><path style="stroke:none" d=""/></g></g><g style="fill:#000000;fill-opacity:1;"><g transform="translate(153.866131, 255.840892)"><path style="stroke:none" d="M 3.234375 -8.609375 L 5.8125 -6.03125 L 5.8125 -0.015625 L 0.21875 -0.015625 L 0.21875 -8.609375 Z M 3.234375 -2.59375 L 3.234375 -6.03125 L 2.796875 -6.03125 L 2.796875 -2.59375 Z M 3.234375 -2.59375 "/></g></g><g style="fill:#000000;fill-opacity:1;"><g transform="translate(159.897001, 255.840892)"><path style="stroke:none" d="M 5.8125 -5.59375 L 5.8125 -3.015625 L 2.796875 -3.015625 L 2.796875 -2.59375 L 5.8125 -2.59375 L 5.8125 -0.015625 L 0.21875 -0.015625 L 0.21875 -8.609375 L 5.8125 -8.609375 L 5.8125 -6.03125 L 2.796875 -6.03125 L 2.796875 -5.59375 Z M 5.8125 -5.59375 "/></g></g><g style="fill:#000000;fill-opacity:1;"><g transform="translate(165.927871, 255.840892)"><path style="stroke:none" d="M 0.21875 -8.609375 L 2.796875 -8.609375 L 2.796875 -2.59375 L 3.234375 -2.59375 L 3.234375 -8.609375 L 5.8125 -8.609375 L 5.8125 -2.59375 L 3.234375 -0.015625 L 0.21875 -0.015625 Z M 0.21875 -8.609375 "/></g></g><g style="fill:#000000;fill-opacity:1;"><g transform="translate(171.958741, 255.840892)"><path style="stroke:none" d="M 5.8125 -5.59375 L 5.8125 -3.015625 L 2.796875 -3.015625 L 2.796875 -2.59375 L 5.8125 -2.59375 L 5.8125 -0.015625 L 0.21875 -0.015625 L 0.21875 -8.609375 L 5.8125 -8.609375 L 5.8125 -6.03125 L 2.796875 -6.03125 L 2.796875 -5.59375 Z M 5.8125 -5.59375 "/></g></g><g style="fill:#000000;fill-opacity:1;"><g transform="translate(177.989611, 255.840892)"><path style="stroke:none" d="M 2.796875 -8.609375 L 2.796875 -2.59375 L 5.375 -2.59375 L 5.375 -0.015625 L 0.21875 -0.015625 L 0.21875 -8.609375 Z M 2.796875 -8.609375 "/></g></g><g style="fill:#000000;fill-opacity:1;"><g transform="translate(183.583624, 255.840892)"><path style="stroke:none" d="M 5.8125 -8.609375 L 5.8125 -0.015625 L 0.21875 -0.015625 L 0.21875 -8.609375 Z M 3.234375 -6.03125 L 2.796875 -6.03125 L 2.796875 -2.59375 L 3.234375 -2.59375 Z M 3.234375 -6.03125 "/></g></g><g style="fill:#000000;fill-opacity:1;"><g transform="translate(189.608821, 255.840892)"><path style="stroke:none" d="M 5.8125 -8.609375 L 5.8125 -3.015625 L 2.78125 -3.015625 L 2.78125 -0.015625 L 0.21875 -0.015625 L 0.21875 -8.609375 Z M 3.234375 -5.59375 L 3.234375 -6.03125 L 2.78125 -6.03125 L 2.78125 -5.59375 Z M 3.234375 -5.59375 "/></g></g><g style="fill:#000000;fill-opacity:1;"><g transform="translate(195.634018, 255.840892)"><path style="stroke:none" d="M 5.8125 -5.59375 L 5.8125 -3.015625 L 2.796875 -3.015625 L 2.796875 -2.59375 L 5.8125 -2.59375 L 5.8125 -0.015625 L 0.21875 -0.015625 L 0.21875 -8.609375 L 5.8125 -8.609375 L 5.8125 -6.03125 L 2.796875 -6.03125 L 2.796875 -5.59375 Z M 5.8125 -5.59375 "/></g></g><g style="fill:#000000;fill-opacity:1;"><g transform="translate(201.664885, 255.840892)"><path style="stroke:none" d="M 0.21875 -0.015625 L 0.21875 -8.609375 L 5.8125 -8.609375 L 5.8125 -5.609375 L 4.515625 -4.3125 L 5.8125 -3.015625 L 5.8125 -0.015625 L 3.234375 -0.015625 L 3.234375 -3.015625 L 2.796875 -3.015625 L 2.796875 -0.015625 Z M 2.796875 -5.59375 L 3.234375 -5.59375 L 3.234375 -6.03125 L 2.796875 -6.03125 Z M 2.796875 -5.59375 "/></g></g><g style="fill:#000000;fill-opacity:1;"><g transform="translate(207.691267, 255.840892)"><path style="stroke:none" d=""/></g></g></g></svg>